Coordinates
version=1
nRows=38
nColumns=12
inDegrees=yes

Units are S.I. units (second, meters, Newtons, ...)
Angles are in degrees

endheader
time	SC_y	SC_z	SC_x	AC_y	AC_z	AC_x	GH_y	GH_z	GH_yy	EL_x	PS_y
       0.0              -21.88          9.056          48.78           32.3         -17.37         -3.727          38.75          55.61          67.91          57.38          9.094
   0.03703              -21.88          9.059          48.78           32.3         -17.37         -3.724          38.73           55.6          67.92          57.38          9.097
   0.07405              -21.88          9.062          48.77          32.31         -17.37          -3.72           38.7          55.58          67.92          57.39            9.1
    0.1111              -21.88          9.066          48.77          32.31         -17.37         -3.716          38.66          55.57          67.93          57.39          9.103
    0.1481              -21.88          9.069          48.77          32.32         -17.37         -3.712          38.63          55.56          67.94           57.4          9.107
    0.1851              -21.88          9.073          48.76          32.32         -17.37         -3.708          38.59          55.55          67.96           57.4          9.111
    0.2222              -21.88          9.077          48.76          32.33         -17.37         -3.703          38.56          55.54          67.97          57.41          9.115
    0.2592              -21.88          9.081          48.75          32.33         -17.37         -3.698          38.52          55.52          67.98          57.41          9.119
    0.2962              -21.88          9.086          48.75          32.34         -17.37         -3.693          38.47          55.51          67.99          57.42          9.124
    0.3332              -21.88          9.091          48.74          32.35         -17.37         -3.687          38.42          55.49          68.01          57.43          9.129
    0.3703              -21.88          9.096          48.73          32.36         -17.37         -3.681          38.37          55.47          68.02          57.43          9.134
    0.4073              -21.88          9.102          48.73          32.37         -17.37         -3.675          38.32          55.45          68.04          57.44           9.14
    0.4443              -21.87          9.108          48.72          32.38         -17.37         -3.668          38.26          55.43          68.06          57.45          9.146
    0.4813              -21.87          9.115          48.71          32.39         -17.37          -3.66           38.2          55.41          68.08          57.46          9.152
    0.5184              -21.87          9.122           48.7           32.4         -17.37         -3.652          38.13          55.38           68.1          57.47           9.16
    0.5554              -21.87           9.13          48.69          32.41         -17.37         -3.643          38.05          55.36          68.12          57.48          9.167
    0.5924              -21.87          9.138          48.68          32.42         -17.37         -3.633          37.97          55.33          68.15          57.49          9.176
    0.6295              -21.87          9.148          48.67          32.43         -17.37         -3.623          37.88           55.3          68.18          57.51          9.185
    0.6665              -21.87          9.158          48.66          32.45         -17.37         -3.611          37.79          55.26          68.21          57.52          9.195
    0.7035              -21.87          9.169          48.65          32.47         -17.37         -3.598          37.68          55.23          68.24          57.54          9.206
    0.7405              -21.87          9.181          48.63          32.48         -17.37         -3.585          37.57          55.19          68.27          57.55          9.218
    0.7776              -21.87          9.194          48.62           32.5         -17.37         -3.569          37.44          55.14          68.31          57.57          9.232
    0.8146              -21.87          9.209           48.6          32.53         -17.37         -3.552           37.3          55.09          68.36          57.59          9.246
    0.8516              -21.86          9.226          48.58          32.55         -17.38         -3.534          37.14          55.04           68.4          57.61          9.263
    0.8886              -21.86          9.244          48.56          32.58         -17.38         -3.513          36.97          54.97          68.46          57.64          9.281
    0.9257              -21.86          9.264          48.53          32.61         -17.38          -3.49          36.77          54.91          68.52          57.67          9.301
    0.9627              -21.86          9.287           48.5          32.64         -17.38         -3.464          36.56          54.83          68.58           57.7          9.324
    0.9997              -21.86          9.312          48.47          32.68         -17.38         -3.434          36.31          54.74          68.66          57.73          9.349
     1.037              -21.85          9.341          48.44          32.73         -17.38         -3.401          36.04          54.65          68.75          57.77          9.378
     1.074              -21.85          9.374           48.4          32.78         -17.38         -3.364          35.72          54.54          68.84          57.82          9.411
     1.111              -21.85          9.412          48.35          32.83         -17.38         -3.321          35.36          54.41          68.95          57.87          9.448
     1.148              -21.84          9.455           48.3           32.9         -17.39         -3.272          34.95          54.27          69.08          57.93          9.491
     1.185              -21.84          9.504          48.24          32.97         -17.39         -3.215          34.48           54.1          69.22           58.0           9.54
     1.222              -21.83          9.562          48.17          33.06         -17.39         -3.149          33.93           53.9          69.39          58.08          9.598
     1.259              -21.83           9.63          48.09          33.16         -17.39         -3.072          33.28          53.68          69.59          58.17          9.665
     1.296              -21.82          9.709          47.99          33.28          -17.4         -2.981          32.53          53.41          69.83          58.28          9.744
     1.333              -21.81          9.804          47.88          33.42          -17.4         -2.873          31.62          53.09          70.11          58.41          9.838
      1.37               -21.8          9.917          47.74          33.59         -17.41         -2.744          30.54          52.71          70.44          58.57          9.951
